<svg xmlns="http://www.w3.org/2000/svg" viewBox="0 0 74 84.16"><defs><style>.cls-1{isolation:isolate;}.cls-2{fill:#ed2224;}.cls-3{fill:#ebebeb;}.cls-4,.cls-5{fill:#fff;}.cls-4{mix-blend-mode:overlay;}.cls-5{opacity:0.25;}</style></defs><title>Artboard 14</title><g class="cls-1"><g id="Layer_1" data-name="Layer 1"><polygon class="cls-2" points="74 0 74 2.11 67.59 75.39 37.02 84.16 6.56 75.43 0 0.43 0 0 74 0"/><path class="cls-3" d="M60.23,16.6H13.66l-1.09.11.1,1.09L13,21.64l.2,2.3.72,8.13,2.31,26.49.21,2.35,0,0,.33,3.69.06.75.73.21,2.29.66,4.61,1.32L26,68l-.14-1.6-.48-5.45-.76-8.76-.87-9.85L36.22,54.74,48.66,67.18l.46.46.63-.18,4.48-1.28h0l1.41-.41,1.51-.43L59,64.82l-1.34-1.33-.92-.92-5.92-5.91L40.5,46.38,60.38,26.5l.28-.29,0-.4.16-1.87.47-5.4V16.6ZM49.28,25,36.22,38l-2,2L22.57,28.45,22.26,25h27Z"/><polygon class="cls-4" points="68.06 6.76 68.06 8.53 62.68 70.05 37.01 77.4 37 77.4 37 6.76 68.06 6.76"/><polygon class="cls-5" points="68.06 6.76 68.06 8.53 62.68 70.05 37.01 77.4 37 77.4 37 6.76 68.06 6.76"/></g></g></svg>